<?xml version="1.0" encoding="UTF-8"?>
<svg id="TrustWallet" xmlns="http://www.w3.org/2000/svg" viewBox="0 0 350 100">
  <defs>
    <style>
      .cls-1 {
        fill: #a3b0c4;
        stroke: #a3b0c4;
      }

      .cls-1, .cls-2, .cls-3, .cls-4, .cls-5, .cls-6, .cls-7, .cls-8, .cls-9, .cls-10 {
        stroke-linecap: round;
        stroke-linejoin: round;
        stroke-width: .02px;
      }

      .cls-2 {
        fill: #ebf1fa;
      }

      .cls-2, .cls-4 {
        stroke: #ebf1fa;
      }

      .cls-3 {
        stroke: #a1adc2;
      }

      .cls-3, .cls-5 {
        fill: #a1adc2;
      }

      .cls-11 {
        fill: none;
      }

      .cls-4 {
        fill: #fcfcfc;
      }

      .cls-12 {
        fill: #61728c;
      }

      .cls-5, .cls-6, .cls-7, .cls-8 {
        stroke: #e4ebf5;
      }

      .cls-6 {
        fill: #ccd5e3;
      }

      .cls-7 {
        fill: #8591a6;
      }

      .cls-13 {
        fill: #fff;
        font-family: Poppins-ExtraBold, Poppins;
        font-size: 40px;
        font-weight: 700;
      }

      .cls-8 {
        fill: #e4ebf5;
      }

      .cls-9 {
        stroke: #121213;
      }

      .cls-9, .cls-10 {
        fill: #171e29;
      }

      .cls-10 {
        stroke: #171e29;
      }
    </style>
  </defs>
  <text class="cls-13" transform="translate(99.96 64.8)"><tspan x="0" y="0">MetaMask</tspan></text>
  <g id="Layer_1-2" data-name="Layer_1">
    <g id="_1943039707408" data-name=" 1943039707408">
      <rect class="cls-11" x="28.83" y="20" width="60" height="60"/>
      <polygon class="cls-8" points="86.18 22.7 62.1 39.14 66.85 29.09 86.18 22.7"/>
      <polygon class="cls-8" points="31.8 22.25 55.03 39.76 50.88 29.37 31.8 22.25"/>
      <polygon class="cls-8" points="77.42 62.46 71.19 71.99 84.54 75.67 88.37 62.67 77.42 62.46"/>
      <polygon class="cls-8" points="29.32 62.67 33.12 75.67 46.45 71.99 40.24 62.46 29.32 62.67"/>
      <polygon class="cls-8" points="45.73 46.37 42.02 51.97 55.24 52.57 54.8 38.35 45.73 46.37"/>
      <polygon class="cls-8" points="71.93 46.37 62.73 38.18 62.42 52.57 75.64 51.97 71.93 46.37"/>
      <polygon class="cls-8" points="46.45 71.99 54.45 68.13 47.56 62.77 46.45 71.99"/>
      <polygon class="cls-8" points="63.21 68.13 71.19 71.99 70.1 62.77 63.21 68.13"/>
      <polygon class="cls-6" points="71.19 71.99 63.21 68.13 63.86 73.31 63.79 75.51 71.19 71.99"/>
      <polygon class="cls-6" points="46.45 71.99 53.87 75.51 53.82 73.31 54.45 68.13 46.45 71.99"/>
      <polygon class="cls-10" points="54.01 59.34 47.38 57.4 52.06 55.25 54.01 59.34"/>
      <polygon class="cls-10" points="63.65 59.34 65.6 55.25 70.31 57.4 63.65 59.34"/>
      <polygon class="cls-3" points="46.45 71.99 47.61 62.46 40.24 62.67 46.45 71.99"/>
      <polygon class="cls-3" points="70.05 62.46 71.19 71.99 77.42 62.67 70.05 62.46"/>
      <polygon class="cls-5" points="75.64 51.97 62.42 52.57 63.65 59.34 65.6 55.25 70.31 57.4 75.64 51.97"/>
      <polygon class="cls-5" points="47.38 57.4 52.06 55.25 54.01 59.34 55.24 52.57 42.02 51.97 47.38 57.4"/>
      <polygon class="cls-7" points="42.02 51.97 47.56 62.77 47.38 57.4 42.02 51.97"/>
      <polygon class="cls-7" points="70.31 57.4 70.1 62.77 75.64 51.97 70.31 57.4"/>
      <polygon class="cls-7" points="55.24 52.57 54.01 59.34 55.56 67.34 55.91 56.8 55.24 52.57"/>
      <polygon class="cls-7" points="62.42 52.57 61.77 56.78 62.1 67.34 63.65 59.34 62.42 52.57"/>
      <polygon class="cls-2" points="63.65 59.34 62.1 67.34 63.21 68.13 70.1 62.77 70.31 57.4 63.65 59.34"/>
      <polygon class="cls-2" points="47.38 57.4 47.56 62.77 54.45 68.13 55.56 67.34 54.01 59.34 47.38 57.4"/>
      <polygon class="cls-1" points="63.79 75.51 63.86 73.31 63.26 72.8 54.4 72.8 53.82 73.31 53.87 75.51 46.45 71.99 49.05 74.12 54.31 77.75 63.33 77.75 68.61 74.12 71.19 71.99 63.79 75.51"/>
      <polygon class="cls-9" points="63.21 68.13 62.1 67.34 55.56 67.34 54.45 68.13 53.82 73.31 54.4 72.8 63.26 72.8 63.86 73.31 63.21 68.13"/>
      <polygon class="cls-12" points="86.86 40.73 88.83 31.15 85.86 22.25 63.21 39.02 71.93 46.37 84.24 49.95 86.95 46.79 85.77 45.93 87.65 44.22 86.21 43.11 88.09 41.67 86.86 40.73"/>
      <polygon class="cls-12" points="28.83 31.15 30.82 40.73 29.55 41.67 31.45 43.11 30.01 44.22 31.89 45.93 30.71 46.79 33.42 49.95 45.73 46.37 54.45 39.02 31.8 22.25 28.83 31.15"/>
      <polygon class="cls-4" points="84.24 49.95 71.93 46.37 75.64 51.97 70.1 62.77 77.42 62.67 88.37 62.67 84.24 49.95"/>
      <polygon class="cls-4" points="45.73 46.37 33.42 49.95 29.32 62.67 40.24 62.67 47.56 62.77 42.02 51.97 45.73 46.37"/>
      <polygon class="cls-2" points="62.42 52.57 63.21 39.02 66.78 29.37 50.88 29.37 54.45 39.02 55.24 52.57 55.54 56.82 55.56 67.34 62.1 67.34 62.12 56.82 62.42 52.57"/>
    </g>
  </g>
</svg>